#!OML:ASF X:\für Bonn\!DataBase\2005_08_11_Bastian_Final\c3d\Bastian.ASF
:FULLY-SPECIFIED
:DEGREES
305
root 16.1771 17.3118 -1.6123 1086.37 -72.7543 -10.7333
lowerback 31.0511 4.12365 -2.11594
upperback 17.4458 2.88321 -1.33665
thorax 2.89752 0.665766 -1.09774
lowerneck -9.5257 -8.80778 0.588575
upperneck -15.9977 -11.044 17.8677
head -2.14517 -6.50957 5.19072
rclavicle -1.35174e-014 4.92986e-014
rhumerus 3.21502 36.7427 -72.4922
rradius 32.3333
rwrist -10.3131
rhand -20.6223 8.52853
rfingers 7.12502
rthumb 5.73899 -21.3738
lclavicle -1.35174e-014 4.92986e-014
lhumerus -6.28568 -16.5194 -278.9
lradius 25.6654
lwrist -333.914
lhand -16.2017 -7.85493
lfingers 7.12502
lthumb 10.0056 21.8872
rfemur -13.627 -2.95042 23.23
rtibia 52.4002
rfoot -12.4271 -11.6085
rtoes -8.95994
lfemur -8.35169 -0.831352 -17.587
ltibia 33.7086
lfoot -13.435 -7.62986
ltoes -9.93193
306
root 16.1109 17.3181 -1.57257 1086.55 -73.1668 -11.0887
lowerback 30.3138 3.94125 -2.11148
upperback 17.311 2.71805 -1.43042
thorax 3.05472 0.59976 -1.13574
lowerneck -9.50778 -8.72248 0.618045
upperneck -15.5193 -10.9817 17.779
head -2.01771 -6.43792 5.14035
rclavicle 5.00937e-014 -5.96354e-014
rhumerus 2.16975 36.3508 -73.236
rradius 32.4058
rwrist -10.145
rhand -20.4963 8.42239
rfingers 7.12502
rthumb 5.86067 -21.4766
lclavicle 5.00937e-014 -5.96354e-014
lhumerus -6.3208 -16.1871 -279.118
lradius 25.857
lwrist -333.869
lhand -16.1499 -7.93936
lfingers 7.12502
lthumb 10.0555 21.8004
rfemur -14.1352 -2.78364 23.2568
rtibia 53.7067
rfoot -11.4103 -11.6681
rtoes -8.17411
lfemur -7.62843 -0.494086 -17.5797
ltibia 33.3419
lfoot -13.582 -7.62426
ltoes -9.32997
307
root 16.0442 17.3246 -1.533 1086.7 -73.5516 -11.4412
lowerback 29.6912 3.73543 -2.11539
upperback 17.1216 2.51832 -1.51993
thorax 3.10016 0.517149 -1.16103
lowerneck -9.44047 -8.61424 0.656602
upperneck -15.0038 -10.8901 17.6585
head -1.89247 -6.34944 5.08163
rclavicle -2.94201e-014 1.03368e-014
rhumerus 1.00178 36.0486 -74.0374
rradius 32.5176
rwrist -9.95669
rhand -20.4618 8.3194
rfingers 7.12502
rthumb 5.89393 -21.5786
lclavicle -2.94201e-014 1.03368e-014
lhumerus -6.47483 -15.8882 -279.316
lradius 26.058
lwrist -333.68
lhand -16.0868 -8.05324
lfingers 7.12502
lthumb 10.1164 21.6836
rfemur -14.6493 -2.69422 23.2784
rtibia 55.0364
rfoot -10.5634 -11.6869
rtoes -7.06397
lfemur -6.84804 -0.169694 -17.5701
ltibia 32.9184
lfoot -13.7109 -7.61941
ltoes -8.75016
308
root 15.9766 17.3331 -1.49587 1087 -73.916 -11.9089
lowerback 29.0717 3.51463 -2.10798
upperback 16.9051 2.30438 -1.60462
thorax 3.11542 0.429476 -1.18577
lowerneck -9.34013 -8.50462 0.667951
upperneck -14.4746 -10.7925 17.5563
head -1.76575 -6.25741 5.03431
rclavicle -2.38542e-015 4.77083e-015
rhumerus -0.138514 35.7828 -74.8427
rradius 32.5627
rwrist -9.83837
rhand -20.4409 8.2939
rfingers 7.12502
rthumb 5.91411 -21.6036
lclavicle -2.38542e-015 4.77083e-015
lhumerus -6.62285 -15.5006 -279.527
lradius 26.1393
lwrist -333.626
lhand -15.971 -8.23523
lfingers 7.12502
lthumb 10.2281 21.4961
rfemur -15.2334 -2.67773 23.35
rtibia 56.3486
rfoot -9.8646 -11.632
rtoes -6.43507
lfemur -6.10143 0.184702 -17.513
ltibia 32.4605
lfoot -13.8199 -7.64828
ltoes -8.61649
309
root 15.9085 17.3395 -1.4583 1087.27 -74.2645 -12.3546
lowerback 28.4481 3.29741 -2.09257
upperback 16.7348 2.09158 -1.66083
thorax 3.18955 0.338795 -1.18609
lowerneck -9.31373 -8.3981 0.692226
upperneck -13.9764 -10.7047 17.4161
head -1.63956 -6.17053 4.97199
rclavicle 3.57812e-014 -4.53229e-014
rhumerus -1.20545 35.4724 -75.5362
rradius 32.6356
rwrist -9.74352
rhand -20.3411 8.2015
rfingers 7.12502
rthumb 6.01052 -21.6932
lclavicle 3.57812e-014 -4.53229e-014
lhumerus -6.63693 -15.1522 -279.708
lradius 26.1506
lwrist -333.416
lhand -15.7941 -8.48981
lfingers 7.12502
lthumb 10.3988 21.2331
rfemur -15.8106 -2.70143 23.4119
rtibia 57.6103
rfoot -9.37834 -11.464
rtoes -6.17117
lfemur -5.34181 0.503528 -17.4639
ltibia 31.9972
lfoot -13.8932 -7.69113
ltoes -7.96847
310
root 15.8397 17.3466 -1.42232 1087.58 -74.5667 -12.8204
lowerback 27.8423 3.07551 -2.03005
upperback 16.5655 1.88121 -1.72695
thorax 3.26211 0.253815 -1.22728
lowerneck -9.31619 -8.29405 0.749748
upperneck -13.5003 -10.6213 17.3094
head -1.51474 -6.08992 4.91474
rclavicle 3.4191e-014 6.83819e-014
rhumerus -2.27814 35.017 -76.2463
rradius 32.6989
rwrist -9.60737
rhand -20.2118 8.08996
rfingers 7.12502
rthumb 6.13537 -21.8012
lclavicle 3.4191e-014 6.83819e-014
lhumerus -6.57364 -14.8375 -279.911
lradius 26.0436
lwrist -333.359
lhand -15.652 -8.76246
lfingers 7.12502
lthumb 10.5359 20.9535
rfemur -16.3998 -2.79429 23.4819
rtibia 58.778
rfoot -9.13176 -11.2103
rtoes -6.27238
lfemur -4.62573 0.832264 -17.3984
ltibia 31.5688
lfoot -14.0078 -7.75872
ltoes -7.71797
311
root 15.7694 17.3496 -1.3873 1087.81 -74.8676 -13.1798
lowerback 27.1895 2.85766 -2.01567
upperback 16.4455 1.66167 -1.78766
thorax 3.41491 0.157641 -1.23491
lowerneck -9.41435 -8.17518 0.778018
upperneck -13.03 -10.5222 17.2269
head -1.37395 -5.999 4.8665
rclavicle -3.97569e-014 -2.62396e-014
rhumerus -3.23527 34.4615 -76.8915
rradius 32.7493
rwrist -9.35093
rhand -20.1355 7.99871
rfingers 7.12502
rthumb 6.20903 -21.8903
lclavicle -3.97569e-014 -2.62396e-014
lhumerus -6.44263 -14.6866 -280.138
lradius 25.9545
lwrist -333.293
lhand -15.6026 -9.00562
lfingers 7.12502
lthumb 10.5835 20.7079
rfemur -16.9876 -2.95338 23.5175
rtibia 59.8436
rfoot -9.05052 -10.8514
rtoes -6.63102
lfemur -3.93265 1.12474 -17.3678
ltibia 31.1813
lfoot -14.1495 -7.81768
ltoes -7.21223
312
root 15.6987 17.3489 -1.35432 1088.07 -75.1332 -13.5583
lowerback 26.5474 2.6495 -2.0075
upperback 16.326 1.45231 -1.81598
thorax 3.5652 0.0643928 -1.20909
lowerneck -9.52369 -8.07433 0.808257
upperneck -12.5896 -10.4457 17.1424
head -1.23885 -5.92151 4.81783
rclavicle 1.11319e-014 -3.18055e-015
rhumerus -4.16337 33.791 -77.4755
rradius 32.7872
rwrist -9.11946
rhand -20.0133 7.92393
rfingers 7.12502
rthumb 6.327 -21.9616
lclavicle 1.11319e-014 -3.18055e-015
lhumerus -6.2441 -14.4565 -280.318
lradius 25.8001
lwrist -333.366
lhand -15.5341 -9.19596
lfingers 7.12502
lthumb 10.6496 20.5142
rfemur -17.5704 -3.12246 23.5619
rtibia 60.7735
rfoot -9.24714 -10.4533
rtoes -6.88493
lfemur -3.30929 1.3921 -17.3223
ltibia 30.8595
lfoot -14.3124 -7.87637
ltoes -6.77149
313
root 15.6275 17.3451 -1.32195 1088.33 -75.392 -13.935
lowerback 25.921 2.43758 -1.99951
upperback 16.2193 1.23459 -1.82991
thorax 3.72595 -0.0348495 -1.16901
lowerneck -9.59634 -7.96988 0.719833
upperneck -12.2185 -10.3422 17.1529
head -1.11834 -5.8347 4.82155
rclavicle -2.38542e-014 7.15625e-015
rhumerus -5.02993 33.0781 -78.0099
rradius 32.7839
rwrist -8.74479
rhand -19.9575 7.81424
rfingers 7.12502
rthumb 6.3808 -22.0696
lclavicle -2.38542e-014 7.15625e-015
lhumerus -6.04395 -14.1416 -280.482
lradius 25.6892
lwrist -333.528
lhand -15.4622 -9.31617
lfingers 7.12502
lthumb 10.7189 20.3904
rfemur -18.1413 -3.34672 23.5932
rtibia 61.593
rfoot -9.61621 -10.018
rtoes -7.16881
lfemur -2.70257 1.70362 -17.2643
ltibia 30.5697
lfoot -14.507 -7.97499
ltoes -6.6244
314
root 15.5537 17.3408 -1.29015 1088.78 -75.6698 -14.4667
lowerback 25.2819 2.23744 -1.95537
upperback 16.0977 1.03961 -1.84481
thorax 3.87927 -0.118866 -1.15792
lowerneck -9.68395 -7.86444 0.627426
upperneck -11.8381 -10.2382 17.2001
head -0.990119 -5.7473 4.83642
rclavicle 1.82882e-014 5.56597e-015
rhumerus -5.89292 32.2354 -78.5614
rradius 32.7396
rwrist -8.34538
rhand -19.9309 7.70963
rfingers 7.12502
rthumb 6.40654 -22.1735
lclavicle 1.82882e-014 5.56597e-015
lhumerus -5.85748 -13.804 -280.642
lradius 25.6284
lwrist -333.748
lhand -15.3243 -9.3539
lfingers 7.12502
lthumb 10.852 20.3457
rfemur -18.7228 -3.56669 23.6611
rtibia 62.2832
rfoot -10.1071 -9.53094
rtoes -7.24727
lfemur -2.12033 1.97365 -17.1778
ltibia 30.2911
lfoot -14.7001 -8.03615
ltoes -6.16257
315
root 15.4775 17.3372 -1.26045 1089.03 -75.9521 -14.7953
lowerback 24.6436 2.05121 -1.98664
upperback 15.9985 0.843739 -1.85961
thorax 4.06006 -0.210715 -1.10723
lowerneck -9.73306 -7.74252 0.57324
upperneck -11.6026 -10.1003 17.2033
head -0.919529 -5.65691 4.84144
rclavicle -1.82882e-014 -4.37326e-014
rhumerus -6.65276 31.4575 -79.0368
rradius 32.7182
rwrist -8.00308
rhand -19.9551 7.51584
rfingers 7.12502
rthumb 6.38312 -22.368
lclavicle -1.82882e-014 -4.37326e-014
lhumerus -5.68793 -13.4824 -280.801
lradius 25.663
lwrist -333.894
lhand -15.2435 -9.35525
lfingers 7.12502
lthumb 10.9299 20.3403
rfemur -19.3254 -3.74984 23.666
rtibia 62.8694
rfoot -10.6392 -9.03491
rtoes -6.83747
lfemur -1.51633 2.25974 -17.1366
ltibia 29.9644
lfoot -14.8654 -8.12243
ltoes -5.76473
316
root 15.3998 17.3369 -1.23082 1089.27 -76.2304 -15.1428
lowerback 24.0552 1.88458 -1.99695
upperback 15.9139 0.671686 -1.84833
thorax 4.23746 -0.291603 -1.04837
lowerneck -9.76415 -7.6521 0.556752
upperneck -11.4051 -10.0048 17.0874
head -0.870427 -5.58958 4.80558
rclavicle 1.43125e-014 -1.35174e-014
rhumerus -7.38953 30.5424 -79.4711
rradius 32.6167
rwrist -7.72855
rhand -20.0646 7.41648
rfingers 7.12502
rthumb 6.27748 -22.4705
lclavicle 1.43125e-014 -1.35174e-014
lhumerus -5.47502 -13.1845 -280.887
lradius 25.5978
lwrist -334.259
lhand -15.2517 -9.42571
lfingers 7.12502
lthumb 10.922 20.2702
rfemur -19.9092 -3.9525 23.6568
rtibia 63.3309
rfoot -11.1346 -8.48023
rtoes -5.9217
lfemur -0.83208 2.60149 -17.0829
ltibia 29.5573
lfoot -15.026 -8.23248
ltoes -5.78888
317
root 15.3221 17.3378 -1.20166 1089.61 -76.491 -15.5891
lowerback 23.5361 1.70528 -1.95315
upperback 15.7817 0.492791 -1.84579
thorax 4.32981 -0.368834 -1.03005
lowerneck -9.80081 -7.58599 0.59382
upperneck -11.0979 -9.95829 16.9003
head -0.791858 -5.53818 4.73407
rclavicle 7.95139e-016 6.04305e-014
rhumerus -8.24582 29.6543 -79.9488
rradius 32.5599
rwrist -7.65453
rhand -20.1311 7.32232
rfingers 7.12502
rthumb 6.21322 -22.5666
lclavicle 7.95139e-016 6.04305e-014
lhumerus -5.36081 -13.0332 -280.982
lradius 25.5659
lwrist -334.599
lhand -15.3279 -9.45427
lfingers 7.12502
lthumb 10.8485 20.2455
rfemur -20.5447 -4.15639 23.6716
rtibia 63.6696
rfoot -11.5926 -7.96731
rtoes -4.95745
lfemur -0.104771 2.85091 -17.0175
ltibia 29.0389
lfoot -15.1149 -8.26289
ltoes -5.48975
318
root 15.2413 17.3438 -1.17409 1089.9 -76.7517 -15.9496
lowerback 23.0018 1.54286 -1.93728
upperback 15.6624 0.329089 -1.83547
thorax 4.44636 -0.441579 -0.992732
lowerneck -9.89724 -7.52791 0.60155
upperneck -10.7549 -9.92652 16.7132
head -0.690115 -5.48841 4.66317
rclavicle 1.35174e-014 -3.97569e-014
rhumerus -9.12934 28.6949 -80.3897
rradius 32.5493
rwrist -7.70245
rhand -19.9067 7.0919
rfingers 7.12502
rthumb 6.42993 -22.7905
lclavicle 1.35174e-014 -3.97569e-014
lhumerus -5.19922 -12.7755 -281.036
lradius 25.4725
lwrist -335
lhand -15.3731 -9.60309
lfingers 7.12502
lthumb 10.8049 20.099
rfemur -21.2272 -4.35975 23.6739
rtibia 63.8903
rfoot -12.0089 -7.5063
rtoes -4.12503
lfemur 0.652602 3.16112 -16.9526
ltibia 28.4194
lfoot -15.1514 -8.34966
ltoes -5.38328
